G04 #@! TF.GenerationSoftware,KiCad,Pcbnew,5.1.4-e60b266~84~ubuntu18.04.1*
G04 #@! TF.CreationDate,2019-08-23T00:28:12+02:00*
G04 #@! TF.ProjectId,2020,32303230-2e6b-4696-9361-645f70636258,rev?*
G04 #@! TF.SameCoordinates,Original*
G04 #@! TF.FileFunction,Copper,L2,Bot*
G04 #@! TF.FilePolarity,Positive*
%FSLAX46Y46*%
G04 Gerber Fmt 4.6, Leading zero omitted, Abs format (unit mm)*
G04 Created by KiCad (PCBNEW 5.1.4-e60b266~84~ubuntu18.04.1) date 2019-08-23 00:28:12*
%MOMM*%
%LPD*%
G04 APERTURE LIST*
%ADD10O,1.600000X2.999999*%
%ADD11O,1.600000X3.000000*%
%ADD12O,1.700000X1.700000*%
%ADD13R,1.700000X1.700000*%
%ADD14O,3.000000X1.600000*%
%ADD15C,2.000000*%
%ADD16R,2.000000X2.000000*%
%ADD17O,1.800000X1.800000*%
%ADD18R,1.800000X1.800000*%
%ADD19C,2.010000*%
%ADD20O,1.600000X1.600000*%
%ADD21C,1.600000*%
%ADD22C,6.000000*%
%ADD23C,2.000000*%
%ADD24C,0.800000*%
%ADD25C,1.000000*%
G04 APERTURE END LIST*
D10*
X160020000Y-129540000D03*
X157480000Y-129540000D03*
D11*
X154940000Y-129540000D03*
D10*
X152400000Y-129540000D03*
X149860000Y-129540000D03*
D12*
X137160000Y-30480000D03*
X134620000Y-30480000D03*
X132080000Y-30480000D03*
X129540000Y-30480000D03*
X127000000Y-30480000D03*
X124460000Y-30480000D03*
D13*
X121920000Y-30480000D03*
D14*
X24800000Y-107950000D03*
X28540000Y-107950000D03*
X24800000Y-110490000D03*
X28540000Y-110490000D03*
X24800000Y-113030000D03*
X28540000Y-113030000D03*
X24800000Y-115570000D03*
X28540000Y-115570000D03*
X24800000Y-102870000D03*
X28540000Y-102870000D03*
X24800000Y-105410000D03*
X28540000Y-105410000D03*
D15*
X38180000Y-38100000D03*
D16*
X43180000Y-38100000D03*
D15*
X91440000Y-43260000D03*
D16*
X91440000Y-48260000D03*
D17*
X41910000Y-46990000D03*
D18*
X41910000Y-57150000D03*
D17*
X97790000Y-52070000D03*
D18*
X97790000Y-41910000D03*
D19*
X102870000Y-45720000D03*
X101670000Y-50820000D03*
D20*
X147320000Y-62230000D03*
D21*
X154940000Y-62230000D03*
D20*
X147320000Y-57150000D03*
D21*
X154940000Y-57150000D03*
D14*
X81280000Y-50800000D03*
X81280000Y-48260000D03*
X81280000Y-45720000D03*
X81280000Y-43180000D03*
X50800000Y-50800000D03*
X50800000Y-48260000D03*
X50800000Y-45720000D03*
X50800000Y-43180000D03*
D12*
X116840000Y-49530000D03*
X116840000Y-46990000D03*
X116840000Y-44450000D03*
X116840000Y-41910000D03*
X116840000Y-39370000D03*
X116840000Y-36830000D03*
D13*
X116840000Y-34290000D03*
D22*
X31750000Y-53340000D03*
X31750000Y-45720000D03*
D11*
X125730000Y-50800000D03*
X128270000Y-50800000D03*
X130810000Y-50800000D03*
X133350000Y-50800000D03*
X135890000Y-50800000D03*
X138430000Y-50800000D03*
X140970000Y-50800000D03*
X143510000Y-50800000D03*
X146050000Y-50800000D03*
X148590000Y-50800000D03*
X151130000Y-50800000D03*
X153670000Y-50800000D03*
X156210000Y-50800000D03*
X161290000Y-50800000D03*
X158750000Y-50800000D03*
X125730000Y-76200000D03*
X130810000Y-76200000D03*
X128270000Y-76200000D03*
X133350000Y-76200000D03*
X135890000Y-76200000D03*
X138430000Y-76200000D03*
X140970000Y-76200000D03*
X143510000Y-76200000D03*
X146050000Y-76200000D03*
X148590000Y-76200000D03*
X151130000Y-76200000D03*
X153670000Y-76200000D03*
X156210000Y-76200000D03*
X158750000Y-76200000D03*
X161290000Y-76200000D03*
X137160000Y-39370000D03*
X144780000Y-39370000D03*
X142240000Y-39370000D03*
X139700000Y-39370000D03*
D12*
X121920000Y-22860000D03*
X124460000Y-22860000D03*
X127000000Y-22860000D03*
X129540000Y-22860000D03*
X132080000Y-22860000D03*
X134620000Y-22860000D03*
D13*
X137160000Y-22860000D03*
D12*
X121920000Y-26670000D03*
X124460000Y-26670000D03*
X127000000Y-26670000D03*
X129540000Y-26670000D03*
X132080000Y-26670000D03*
X134620000Y-26670000D03*
D13*
X137160000Y-26670000D03*
D11*
X73660000Y-34290000D03*
X76200000Y-34290000D03*
D14*
X24800000Y-73660000D03*
X28540000Y-73660000D03*
X24800000Y-76200000D03*
X28540000Y-76200000D03*
X24800000Y-78740000D03*
X28540000Y-78740000D03*
X24800000Y-81280000D03*
X28540000Y-81280000D03*
X24800000Y-68580000D03*
X28540000Y-68580000D03*
X24800000Y-71120000D03*
X28540000Y-71120000D03*
X169510000Y-97790000D03*
X165770000Y-97790000D03*
X169510000Y-95250000D03*
X165770000Y-95250000D03*
X169510000Y-92710000D03*
X165770000Y-92710000D03*
X169510000Y-90170000D03*
X165770000Y-90170000D03*
X169510000Y-102870000D03*
X165770000Y-102870000D03*
X169510000Y-100330000D03*
X165770000Y-100330000D03*
D11*
X127000000Y-19050000D03*
X129540000Y-19050000D03*
X132080000Y-19050000D03*
X134620000Y-19050000D03*
D14*
X109220000Y-52070000D03*
X109220000Y-49530000D03*
X109220000Y-46990000D03*
X109220000Y-44450000D03*
X109220000Y-41910000D03*
X109220000Y-39370000D03*
D15*
X158750000Y-67310000D03*
X104140000Y-54610000D03*
X16510000Y-99060000D03*
X173990000Y-71120000D03*
X128270000Y-72390000D03*
X33020000Y-114300000D03*
X139700000Y-43180000D03*
X35560000Y-110490000D03*
X35560000Y-127000000D03*
X40640000Y-110490000D03*
X40640000Y-124460000D03*
X125730000Y-60960000D03*
X166370000Y-67310000D03*
X168910000Y-66040000D03*
X171450000Y-63500000D03*
D23*
X41910000Y-39370000D02*
X43180000Y-38100000D01*
X41910000Y-46990000D02*
X41910000Y-39370000D01*
X50800000Y-50800000D02*
X50800000Y-48260000D01*
X43180000Y-48260000D02*
X41910000Y-46990000D01*
X50800000Y-48260000D02*
X43180000Y-48260000D01*
X38180000Y-39290000D02*
X31750000Y-45720000D01*
X38180000Y-38100000D02*
X38180000Y-39290000D01*
X53340000Y-40640000D02*
X50800000Y-43180000D01*
X49610000Y-34370000D02*
X53340000Y-38100000D01*
X53340000Y-38100000D02*
X53340000Y-40640000D01*
X38180000Y-38100000D02*
X41910000Y-34370000D01*
X41910000Y-34370000D02*
X49610000Y-34370000D01*
D24*
X49690000Y-34290000D02*
X49610000Y-34370000D01*
X73660000Y-34290000D02*
X49690000Y-34290000D01*
D23*
X50800000Y-43180000D02*
X50800000Y-45720000D01*
X81280000Y-45720000D02*
X81280000Y-43180000D01*
X139700000Y-39370000D02*
X139700000Y-34290000D01*
X139700000Y-34290000D02*
X140970000Y-33020000D01*
X140010000Y-22860000D02*
X137160000Y-22860000D01*
X140970000Y-23820000D02*
X140010000Y-22860000D01*
X140970000Y-33020000D02*
X140970000Y-23820000D01*
X137160000Y-22860000D02*
X134620000Y-22860000D01*
X132080000Y-19050000D02*
X134620000Y-19050000D01*
X132080000Y-19050000D02*
X132080000Y-22860000D01*
D25*
X140970000Y-33020000D02*
X152400000Y-33020000D01*
X152400000Y-33020000D02*
X161290000Y-41910000D01*
X161290000Y-41910000D02*
X161290000Y-45720000D01*
X161290000Y-45720000D02*
X166370000Y-50800000D01*
X166370000Y-50800000D02*
X166370000Y-54610000D01*
X166370000Y-54610000D02*
X168910000Y-57150000D01*
X168910000Y-57150000D02*
X168910000Y-58420000D01*
X168910000Y-58420000D02*
X161290000Y-66040000D01*
X161290000Y-66040000D02*
X160020000Y-66040000D01*
X160020000Y-66040000D02*
X158750000Y-67310000D01*
X158750000Y-67310000D02*
X158750000Y-67310000D01*
X161290000Y-76200000D02*
X161290000Y-73660000D01*
X161290000Y-73660000D02*
X160020000Y-72390000D01*
X160020000Y-72390000D02*
X142240000Y-72390000D01*
X142240000Y-72390000D02*
X132080000Y-72390000D01*
X132080000Y-72390000D02*
X123190000Y-63500000D01*
X123190000Y-63500000D02*
X123190000Y-55880000D01*
X123190000Y-55880000D02*
X122150010Y-54840010D01*
X107898676Y-54840010D02*
X107668666Y-54610000D01*
X122150010Y-54840010D02*
X107898676Y-54840010D01*
X107668666Y-54610000D02*
X104140000Y-54610000D01*
X104140000Y-54610000D02*
X104140000Y-54610000D01*
D23*
X38100000Y-53340000D02*
X41910000Y-57150000D01*
X31750000Y-53340000D02*
X38100000Y-53340000D01*
D24*
X27940000Y-53340000D02*
X31750000Y-53340000D01*
X76200000Y-31750000D02*
X74930000Y-30480000D01*
X76200000Y-34290000D02*
X76200000Y-31750000D01*
X74930000Y-30480000D02*
X40640000Y-30480000D01*
X40640000Y-30480000D02*
X26670000Y-44450000D01*
X26670000Y-44450000D02*
X26670000Y-52070000D01*
X26670000Y-52070000D02*
X27940000Y-53340000D01*
D23*
X134620000Y-36830000D02*
X137160000Y-39370000D01*
X134620000Y-30480000D02*
X134620000Y-36830000D01*
D25*
X123435998Y-19050000D02*
X125200000Y-19050000D01*
X119380000Y-23105998D02*
X123435998Y-19050000D01*
X125200000Y-19050000D02*
X127000000Y-19050000D01*
X119380000Y-30480000D02*
X119380000Y-23105998D01*
D23*
X119380000Y-30480000D02*
X121920000Y-30480000D01*
D25*
X127000000Y-19050000D02*
X129540000Y-19050000D01*
D23*
X109220000Y-41910000D02*
X109220000Y-39370000D01*
X109220000Y-35560000D02*
X109220000Y-39370000D01*
X119380000Y-30480000D02*
X114300000Y-30480000D01*
X114300000Y-30480000D02*
X109220000Y-35560000D01*
X102870000Y-41910000D02*
X102870000Y-45720000D01*
X109220000Y-39370000D02*
X105410000Y-39370000D01*
X105410000Y-39370000D02*
X102870000Y-41910000D01*
X81280000Y-48260000D02*
X81280000Y-50800000D01*
X101670000Y-53270000D02*
X101670000Y-50820000D01*
X88590000Y-54610000D02*
X100330000Y-54610000D01*
X81280000Y-50800000D02*
X84780000Y-50800000D01*
X100330000Y-54610000D02*
X101670000Y-53270000D01*
X84780000Y-50800000D02*
X88590000Y-54610000D01*
D25*
X161290000Y-50800000D02*
X161290000Y-54610000D01*
X161290000Y-54610000D02*
X158750000Y-57150000D01*
X158750000Y-57150000D02*
X154940000Y-57150000D01*
X154940000Y-57150000D02*
X154940000Y-62230000D01*
D24*
X16510000Y-99060000D02*
X16510000Y-91440000D01*
X25400000Y-82550000D02*
X25400000Y-81280000D01*
X16510000Y-91440000D02*
X25400000Y-82550000D01*
X173990000Y-90170000D02*
X168910000Y-90170000D01*
X175260000Y-91440000D02*
X173990000Y-90170000D01*
X172720000Y-105410000D02*
X175260000Y-102870000D01*
X175260000Y-102870000D02*
X175260000Y-91440000D01*
X172720000Y-113030000D02*
X172720000Y-105410000D01*
X157480000Y-132080000D02*
X158750000Y-133350000D01*
X157480000Y-129540000D02*
X157480000Y-132080000D01*
X158750000Y-133350000D02*
X162560000Y-133350000D01*
X165100000Y-120650000D02*
X172720000Y-113030000D01*
X162560000Y-133350000D02*
X165100000Y-130810000D01*
X165100000Y-130810000D02*
X165100000Y-120650000D01*
D23*
X124460000Y-26670000D02*
X121920000Y-26670000D01*
D24*
X175260000Y-91440000D02*
X175260000Y-74930000D01*
X175260000Y-74930000D02*
X175260000Y-72390000D01*
X175260000Y-72390000D02*
X173990000Y-71120000D01*
X173990000Y-71120000D02*
X173990000Y-71120000D01*
X128270000Y-72390000D02*
X124460000Y-72390000D01*
X124460000Y-72390000D02*
X123190000Y-73660000D01*
X123190000Y-73660000D02*
X121920000Y-74930000D01*
X121920000Y-74930000D02*
X121920000Y-86360000D01*
X121920000Y-86360000D02*
X127000000Y-91440000D01*
X127000000Y-91440000D02*
X127000000Y-116840000D01*
X127000000Y-116840000D02*
X121920000Y-121920000D01*
X121375010Y-121375010D02*
X73115010Y-121375010D01*
X121920000Y-121920000D02*
X121375010Y-121375010D01*
X73115010Y-121375010D02*
X68580000Y-116840000D01*
X68580000Y-116840000D02*
X66040000Y-114300000D01*
X66040000Y-114300000D02*
X33020000Y-114300000D01*
X33020000Y-114300000D02*
X33020000Y-114300000D01*
D25*
X147320000Y-62230000D02*
X132080000Y-62230000D01*
X128270000Y-58420000D02*
X128270000Y-50800000D01*
X132080000Y-62230000D02*
X128270000Y-58420000D01*
D24*
X139700000Y-43180000D02*
X130810000Y-43180000D01*
X130810000Y-43180000D02*
X128270000Y-45720000D01*
X128270000Y-45720000D02*
X128270000Y-50800000D01*
D25*
X135890000Y-50100000D02*
X135890000Y-50800000D01*
X142240000Y-43750000D02*
X135890000Y-50100000D01*
X142240000Y-39370000D02*
X142240000Y-43750000D01*
X147320000Y-57150000D02*
X138430000Y-57150000D01*
X135890000Y-54610000D02*
X135890000Y-50800000D01*
X138430000Y-57150000D02*
X135890000Y-54610000D01*
X140970000Y-81280000D02*
X140970000Y-76200000D01*
X137160000Y-85090000D02*
X140970000Y-81280000D01*
X124460000Y-128270000D02*
X137160000Y-115570000D01*
X62230000Y-128270000D02*
X124460000Y-128270000D01*
X21590000Y-107950000D02*
X19050000Y-110490000D01*
X137160000Y-115570000D02*
X137160000Y-85090000D01*
X25400000Y-107950000D02*
X21590000Y-107950000D01*
X19050000Y-118110000D02*
X21590000Y-120650000D01*
X19050000Y-110490000D02*
X19050000Y-118110000D01*
X21590000Y-120650000D02*
X54610000Y-120650000D01*
X54610000Y-120650000D02*
X62230000Y-128270000D01*
X22860000Y-110490000D02*
X25400000Y-110490000D01*
X21590000Y-111760000D02*
X22860000Y-110490000D01*
X64770000Y-119380000D02*
X63500000Y-118110000D01*
X63500000Y-118110000D02*
X22860000Y-118110000D01*
X68580000Y-119380000D02*
X64770000Y-119380000D01*
X132080000Y-86360000D02*
X132080000Y-115570000D01*
X138430000Y-76200000D02*
X138430000Y-80010000D01*
X132080000Y-115570000D02*
X123190000Y-124460000D01*
X123190000Y-124460000D02*
X73660000Y-124460000D01*
X21590000Y-116840000D02*
X21590000Y-111760000D01*
X22860000Y-118110000D02*
X21590000Y-116840000D01*
X138430000Y-80010000D02*
X132080000Y-86360000D01*
X73660000Y-124460000D02*
X68580000Y-119380000D01*
X25400000Y-102870000D02*
X25400000Y-101600000D01*
X25400000Y-101600000D02*
X26670000Y-100330000D01*
X26670000Y-100330000D02*
X34290000Y-100330000D01*
X34290000Y-100330000D02*
X35560000Y-101600000D01*
X35560000Y-101600000D02*
X35560000Y-110490000D01*
X35560000Y-110490000D02*
X35560000Y-110490000D01*
X35560000Y-127000000D02*
X41910000Y-133350000D01*
X41910000Y-133350000D02*
X129540000Y-133350000D01*
X129540000Y-133350000D02*
X144780000Y-118110000D01*
X144780000Y-118110000D02*
X144780000Y-87630000D01*
X144780000Y-87630000D02*
X146050000Y-86360000D01*
X146050000Y-86360000D02*
X146050000Y-76200000D01*
X25400000Y-105410000D02*
X21590000Y-105410000D01*
X21590000Y-105410000D02*
X19050000Y-102870000D01*
X19050000Y-102870000D02*
X19050000Y-100330000D01*
X19050000Y-100330000D02*
X21590000Y-97790000D01*
X21590000Y-97790000D02*
X38100000Y-97790000D01*
X38100000Y-97790000D02*
X40640000Y-100330000D01*
X40640000Y-100330000D02*
X40640000Y-110490000D01*
X40640000Y-110490000D02*
X40640000Y-110490000D01*
X143510000Y-83820000D02*
X143510000Y-76200000D01*
X140970000Y-86360000D02*
X143510000Y-83820000D01*
X140970000Y-116840000D02*
X140970000Y-86360000D01*
X127000000Y-130810000D02*
X140970000Y-116840000D01*
X40640000Y-124460000D02*
X46990000Y-130810000D01*
X46990000Y-130810000D02*
X127000000Y-130810000D01*
D24*
X118490000Y-34290000D02*
X121920000Y-37720000D01*
X116840000Y-34290000D02*
X118490000Y-34290000D01*
X121920000Y-37720000D02*
X121920000Y-50800000D01*
X121920000Y-50800000D02*
X125730000Y-54610000D01*
X125730000Y-54610000D02*
X125730000Y-57435648D01*
X125730000Y-57435648D02*
X125730000Y-60960000D01*
X125730000Y-60960000D02*
X125730000Y-60960000D01*
X149860000Y-127240001D02*
X149860000Y-129540000D01*
X152400000Y-85090000D02*
X152400000Y-124700001D01*
X157480000Y-80010000D02*
X152400000Y-85090000D01*
X151130000Y-67310000D02*
X153670000Y-69850000D01*
X163830000Y-71120000D02*
X163830000Y-78740000D01*
X151130000Y-50800000D02*
X151130000Y-67310000D01*
X152400000Y-124700001D02*
X149860000Y-127240001D01*
X153670000Y-69850000D02*
X162560000Y-69850000D01*
X162560000Y-69850000D02*
X163830000Y-71120000D01*
X162560000Y-80010000D02*
X157480000Y-80010000D01*
X163830000Y-78740000D02*
X162560000Y-80010000D01*
X152400000Y-129540000D02*
X152400000Y-127000000D01*
X152400000Y-127000000D02*
X154940000Y-124460000D01*
X154940000Y-124460000D02*
X154940000Y-87630000D01*
X154940000Y-87630000D02*
X154940000Y-86360000D01*
X154940000Y-86360000D02*
X158750000Y-82550000D01*
X158750000Y-82550000D02*
X162560000Y-82550000D01*
X162560000Y-82550000D02*
X166370000Y-78740000D01*
X166370000Y-78740000D02*
X166370000Y-67310000D01*
X166370000Y-67310000D02*
X166370000Y-67310000D01*
X168910000Y-66040000D02*
X168910000Y-66040000D01*
X168910000Y-73660000D02*
X168910000Y-66040000D01*
X168910000Y-74930000D02*
X168910000Y-73660000D01*
X171450000Y-77470000D02*
X168910000Y-74930000D01*
X171450000Y-83820000D02*
X171450000Y-77470000D01*
X154940000Y-127000000D02*
X157480000Y-124460000D01*
X154940000Y-129540000D02*
X154940000Y-127000000D01*
X157480000Y-124460000D02*
X157480000Y-88900000D01*
X157480000Y-88900000D02*
X161290000Y-85090000D01*
X161290000Y-85090000D02*
X170180000Y-85090000D01*
X170180000Y-85090000D02*
X171450000Y-83820000D01*
X171450000Y-63500000D02*
X171450000Y-63500000D01*
X160020000Y-90170000D02*
X160020000Y-125730000D01*
X171450000Y-74930000D02*
X172720000Y-76200000D01*
X171450000Y-63500000D02*
X171450000Y-74930000D01*
X160020000Y-125730000D02*
X160020000Y-129540000D01*
X172720000Y-86360000D02*
X171450000Y-87630000D01*
X172720000Y-76200000D02*
X172720000Y-86360000D01*
X171450000Y-87630000D02*
X162560000Y-87630000D01*
X162560000Y-87630000D02*
X160020000Y-90170000D01*
M02*
