M48
; DRILL file {KiCad 5.1.4-e60b266~84~ubuntu18.04.1} date petak, 23. kolovoza 2019. 00:28:57 CEST
; FORMAT={-:-/ absolute / inch / decimal}
; #@! TF.CreationDate,2019-08-23T00:28:57+02:00
; #@! TF.GenerationSoftware,Kicad,Pcbnew,5.1.4-e60b266~84~ubuntu18.04.1
; #@! TF.FileFunction,NonPlated,1,2,NPTH
FMAT,2
INCH
T1C0.0787
T2C0.0827
%
G90
G05
T1
X4.8783Y-3.2094
X4.8783Y-4.3906
X6.65Y-3.2094
X6.65Y-4.3906
X1.0Y-3.7094
X1.0Y-4.8906
X2.7717Y-3.7094
X2.7717Y-4.8906
X1.0Y-2.3594
X1.0Y-3.5406
X2.7717Y-2.3594
X2.7717Y-3.5406
T2
X1.7587Y-1.1
X2.8413Y-1.1
X1.9Y-1.55
X1.9Y-2.15
X3.3Y-1.55
X3.3Y-2.15
X5.8012Y-4.6453
X6.3917Y-4.6453
X6.3917Y-5.039
X5.0Y-1.55
X6.1Y-1.55
T0
M30
