M48
; DRILL file {KiCad 5.1.4-e60b266~84~ubuntu18.04.1} date petak, 23. kolovoza 2019. 00:28:57 CEST
; FORMAT={-:-/ absolute / inch / decimal}
; #@! TF.CreationDate,2019-08-23T00:28:57+02:00
; #@! TF.GenerationSoftware,Kicad,Pcbnew,5.1.4-e60b266~84~ubuntu18.04.1
; #@! TF.FileFunction,Plated,1,2,PTH
FMAT,2
INCH
T1C0.0315
T2C0.0354
T3C0.0394
T4C0.0398
T5C0.0906
%
G90
G05
T1
X5.8Y-2.45
X6.1Y-2.45
X5.8Y-2.25
X6.1Y-2.25
T2
X3.85Y-1.65
X3.85Y-2.05
X1.65Y-1.85
X1.65Y-2.25
T3
X0.65Y-3.9
X1.3Y-4.5
X1.4Y-4.35
X1.4Y-5.0
X1.6Y-4.35
X1.6Y-4.9
X4.1Y-2.15
X4.95Y-2.4
X5.05Y-2.85
X5.5Y-1.7
X6.25Y-2.65
X6.55Y-2.65
X6.65Y-2.6
X6.75Y-2.5
X6.85Y-2.8
X3.6Y-1.7031
X3.6Y-1.9
X1.0Y-4.05
X1.0Y-4.15
X1.0Y-4.25
X1.0Y-4.35
X1.0Y-4.45
X1.0Y-4.55
X1.1Y-4.05
X1.1Y-4.15
X1.1Y-4.25
X1.1Y-4.35
X1.1Y-4.45
X1.1Y-4.55
X5.0Y-0.75
X5.1Y-0.75
X5.2Y-0.75
X5.3Y-0.75
X4.8Y-1.05
X4.9Y-1.05
X5.0Y-1.05
X5.1Y-1.05
X5.2Y-1.05
X5.3Y-1.05
X5.4Y-1.05
X4.6Y-1.35
X4.6Y-1.45
X4.6Y-1.55
X4.6Y-1.65
X4.6Y-1.75
X4.6Y-1.85
X4.6Y-1.95
X2.0Y-1.7
X2.0Y-1.8
X2.0Y-1.9
X2.0Y-2.0
X3.2Y-1.7
X3.2Y-1.8
X3.2Y-1.9
X3.2Y-2.0
X1.5031Y-1.5
X1.7Y-1.5
X1.0Y-2.7
X1.0Y-2.8
X1.0Y-2.9
X1.0Y-3.0
X1.0Y-3.1
X1.0Y-3.2
X1.1Y-2.7
X1.1Y-2.8
X1.1Y-2.9
X1.1Y-3.0
X1.1Y-3.1
X1.1Y-3.2
X5.9Y-5.1
X6.0Y-5.1
X6.1Y-5.1
X6.2Y-5.1
X6.3Y-5.1
X4.95Y-2.0
X4.95Y-3.0
X5.05Y-2.0
X5.05Y-3.0
X5.15Y-2.0
X5.15Y-3.0
X5.25Y-2.0
X5.25Y-3.0
X5.35Y-2.0
X5.35Y-3.0
X5.45Y-2.0
X5.45Y-3.0
X5.55Y-2.0
X5.55Y-3.0
X5.65Y-2.0
X5.65Y-3.0
X5.75Y-2.0
X5.75Y-3.0
X5.85Y-2.0
X5.85Y-3.0
X5.95Y-2.0
X5.95Y-3.0
X6.05Y-2.0
X6.05Y-3.0
X6.15Y-2.0
X6.15Y-3.0
X6.25Y-2.0
X6.25Y-3.0
X6.35Y-2.0
X6.35Y-3.0
X5.4Y-1.55
X5.5Y-1.55
X5.6Y-1.55
X5.7Y-1.55
X4.8Y-0.9
X4.9Y-0.9
X5.0Y-0.9
X5.1Y-0.9
X5.2Y-0.9
X5.3Y-0.9
X5.4Y-0.9
X4.8Y-1.2
X4.9Y-1.2
X5.0Y-1.2
X5.1Y-1.2
X5.2Y-1.2
X5.3Y-1.2
X5.4Y-1.2
X4.3Y-1.55
X4.3Y-1.65
X4.3Y-1.75
X4.3Y-1.85
X4.3Y-1.95
X4.3Y-2.05
X6.55Y-3.55
X6.55Y-3.65
X6.55Y-3.75
X6.55Y-3.85
X6.55Y-3.95
X6.55Y-4.05
X6.65Y-3.55
X6.65Y-3.65
X6.65Y-3.75
X6.65Y-3.85
X6.65Y-3.95
X6.65Y-4.05
X2.9Y-1.35
X3.0Y-1.35
T4
X4.0028Y-2.0008
X4.05Y-1.8
T5
X1.25Y-1.8
X1.25Y-2.1
T0
M30
